<?xml version='1.0' encoding='utf-8'?>
<svg xmlns="http://www.w3.org/2000/svg" width="190.995mm" height="127.296mm" version="1.1" style="shape-rendering:geometricPrecision; text-rendering:geometricPrecision; image-rendering:optimizeQuality; fill-rule:evenodd; clip-rule:evenodd" viewBox="0 0 19903.72 13265.62"> <defs> <style type="text/css">  .fil22 {fill:#241332} .fil19 {fill:#260B38} .fil26 {fill:#261447} .fil7 {fill:#27152B} .fil30 {fill:#2B1537} .fil15 {fill:#2F062E} .fil16 {fill:#31052D} .fil39 {fill:#352B2E} .fil18 {fill:#3B0C34} .fil41 {fill:#443436} .fil38 {fill:#472E34} .fil1 {fill:#4B4349} .fil37 {fill:#4C3A46} .fil2 {fill:#56444B} .fil40 {fill:#5A4C55} .fil3 {fill:#665C64} .fil29 {fill:#694F52} .fil27 {fill:#696668} .fil34 {fill:#6CA594} .fil11 {fill:#6CAB92} .fil32 {fill:#6DAB97} .fil33 {fill:#777877} .fil48 {fill:#79B7AF} .fil43 {fill:#86B9A5} .fil46 {fill:#877975} .fil47 {fill:#89716C} .fil44 {fill:#8E8A7A} .fil4 {fill:#90AC8F} .fil0 {fill:#AE9986} .fil24 {fill:#AFB0AE} .fil12 {fill:#AFD2B4} .fil42 {fill:#B19576} .fil28 {fill:#B9D2BC} .fil8 {fill:#BAD2B7} .fil10 {fill:#BAD3BA} .fil9 {fill:#BDD3BA} .fil23 {fill:#CE866D} .fil6 {fill:#CFCCAE} .fil35 {fill:#D0AA8F} .fil20 {fill:#D2856C} .fil17 {fill:#D88972} .fil49 {fill:#D8AC70} .fil14 {fill:#D9866D} .fil50 {fill:#E5C8A7} .fil25 {fill:#ECE5C6} .fil5 {fill:#EFD4AB} .fil21 {fill:#F3E3BC} .fil45 {fill:#F3EFD3} .fil31 {fill:#F4F4E7} .fil36 {fill:#F6E4B5} .fil13 {fill:#F9E6C1}  </style> </defs> <g id="Layer_x0020_1"> <metadata id="CorelCorpID_0Corel-Layer"/> <g id="_1629394363968"> <g> <path class="fil0" d="M12974.33 10292.82c-3.8,61.89 0.75,162.35 10.86,219.59 36.92,8.72 199.28,7.01 239.72,0.73 5.1,-40.51 5.78,-183.69 -2.76,-223.01 -42.38,-10.94 -194.3,4.19 -247.81,2.69z"/> <path class="fil0" d="M13078.63 10026.04c35.49,-3.32 101.28,12.95 127.31,-0.86l5.35 -11.19c6.1,-23.55 2.28,-135.31 0.22,-156.49 -38.87,-21.05 -184.48,-9.49 -242.7,-12.98 -0.79,28.95 -4.31,172.88 16.94,180.66 11.44,4.19 -2.23,1.07 11.7,3.62l81.17 -2.74z"/> </g> <g> <path class="fil1" d="M8793.88 9980.68c26.81,5.42 96.72,1.28 129.02,1.66 83.02,0.96 75.99,19.58 73.92,-62.13 -1.87,-73.99 5.1,-201.62 -6.09,-268.54l-201.79 1.9c-2.76,22.03 0.81,298.66 4.94,327.12z"/> <path class="fil1" d="M2743.73 9956.78c-5.55,31.77 -5.83,105.95 4.97,131.88 23.72,12.29 70.22,4.61 100.95,3.93 33.55,-0.73 70.11,7.85 105.25,6.75 4.87,-42.47 1.85,-118.64 -4.02,-158.94 -39.41,-8.39 -171.11,4.54 -207.15,16.38z"/> </g> <g> <path class="fil2" d="M15142.2 10805.37c15.65,-15.95 11.34,-19.78 8.8,-41.88 -4.78,-41.77 -2.56,-135.47 5.22,-172.89 45.29,-20.88 106,-46.88 163.75,-33.26 19.53,58.46 54.06,196.04 58.06,258.45 38.88,-1.95 13.01,-0.82 22.93,-9.11 -12.59,-69.98 -67.04,-253.58 -50.97,-301.77 5.67,-17.03 39.74,-59.91 47.47,-63.46 12.07,121.25 -14.15,100.29 16.49,274.77l19.82 80.2c3.02,-123.56 -22.18,-302.43 8.12,-443.56 -4.28,-19.12 3.36,-9.54 -7.51,-17.06 -31.1,17.39 -33.9,4.72 -43.49,48.51 -6.62,30.19 -7.02,39.93 -30.3,52.07 2.5,-36.42 27.25,-59.53 20.55,-94.05 -17.53,-6.6 -219.22,-9.27 -244.35,-5.17 6.86,62.31 2.8,167.77 5.56,237.13 2.99,75.23 -8.03,160.34 -0.13,231.08z"/> <path class="fil2" d="M14906.71 10618.23l-2.39 -270 -123.27 -3.74c-4.66,28.92 4.75,83.47 4.02,119.21 -0.82,40.27 -2.69,81.08 -4.12,121.36l10.04 5.59c32,22.06 7.97,81.26 39.04,92.44 25.77,9.26 34.61,-11.88 41.22,-26.52 14.78,-32.77 14.01,-16.66 35.46,-38.33z"/> </g> <g> <path class="fil3" d="M14901.07 10297.08c7.91,-12.65 14.49,-19.3 11.07,-42.53 -8.47,-57.49 -10.56,-104.2 -4.9,-165.43 3.43,-37.05 15.83,-27.76 20.9,-89.25 3.7,-44.72 -2.02,-64.13 46.7,-63.19l3.92 316.35c1.68,26.01 -1.09,26.21 17.63,36.51 8.64,-10.42 3.99,0.46 8.49,-15.44 5.69,-20.1 -2.23,-35.42 -3.22,-58.62 -1.09,-25.96 4.1,-44.98 4.16,-73.56 0.07,-33.87 1.87,-42.72 7.62,-72.42 4.5,-23.23 3.97,-46.37 5.2,-75.43l30.51 -22.09c22.82,17.28 11.33,26.05 23.51,52.31l5.24 8.67c-4.4,-100.48 21.02,-122.48 -44.36,-120.86 -11.53,0.28 -25.59,0.88 -37.15,1.48 -71.59,3.76 -194.18,-12.36 -226.72,4.65 6.94,35.22 0.49,141.75 0.82,186.65 0.31,41.73 -0.64,148.1 9.56,183.62 27.21,16.37 86.13,7.48 121.02,8.59z"/> <path class="fil3" d="M14781.06 10344.49l123.27 3.74 2.39 270c35.21,-16.29 79.82,-11.47 125.25,-10.65 23.95,34.33 13.39,11.88 15.15,88.29 0.84,36.21 2.03,70.59 3.52,106.67 12.56,4.2 6.29,3.5 19.46,-1.1 6.27,-32.6 9.58,-439.55 2.28,-465.5 -15.49,-8.35 -94.21,4.85 -144.59,2.79l-111.17 -1.85c-10.99,-0.1 -27.13,-0.35 -35.56,7.62z"/> </g> <g> <path class="fil4" d="M2743.73 9956.78c36.04,-11.84 167.74,-24.77 207.15,-16.38 5.88,40.3 8.89,116.48 4.02,158.94 -35.14,1.09 -71.71,-7.48 -105.25,-6.75 -30.73,0.68 -77.23,8.36 -100.95,-3.93 -10.8,-25.93 -10.53,-100.1 -4.97,-131.88zm-45.33 204.88c65.82,9.08 240.98,-9.45 281.65,2.54 6.68,37.5 4.2,112.05 6.42,152.07 5.51,99.47 2.47,418.91 10.65,448.97 22.5,-0.09 17.05,-1.14 37.43,-6.65l0.41 -78.53c5.21,-51.94 -0.99,-137.54 -0.25,-195.26 1.79,-140.33 7.02,-494.22 -3.16,-599.01 -47.65,-10.6 -298.72,-8.4 -337.09,8.02l3.94 267.84z"/> <path class="fil4" d="M13231.85 10086.93l-35.46 -8.39 -224.04 1.88c-0.16,1.9 9.45,164.62 10.41,170.19 25.42,4.31 200.82,-8.16 224.07,-13.93 9.97,-56.68 -2.53,-50.8 -7.26,-71.48 -6.21,-27.21 17.33,-34.09 34.08,-44.7l-1.79 -33.57z"/> </g> <g> <path class="fil5" d="M14767.27 9774.77c-11.48,42.7 4.62,98.22 2.4,143.46 32.55,-17.01 155.13,-0.89 226.72,-4.65 11.56,-0.6 25.63,-1.2 37.15,-1.48 65.38,-1.62 39.96,20.38 44.36,120.86l-4.23 268.3 -60.56 -1.23c10.83,14.51 -2.73,2.79 14.77,8.62 23.85,7.93 36.62,0.17 51.2,-3.43 10.67,-2.63 -0.29,-2.38 11.24,-2.09 9.11,0.23 8.07,6.78 48.5,7.24l-2.06 26.79c25.14,-4.11 226.83,-1.43 244.35,5.17 6.7,34.53 -18.05,57.63 -20.55,94.05 23.28,-12.14 23.69,-21.88 30.3,-52.07 9.59,-43.79 12.39,-31.12 43.49,-48.51 10.87,7.52 3.23,-2.06 7.51,17.06l7.28 -20.72c3.58,-20.76 3.08,-49.88 -8.74,-63.65l1.27 32.26c-39.16,1.19 -27.47,-11.19 -70.5,-6.46 -26.42,2.9 -48.75,0.18 -75.43,2.3 -48.04,3.83 -103.42,2.26 -151.33,-0.84 -7.04,-47.2 -1.8,-143.47 1.91,-192.65 5.06,-67.01 -11.56,-139.45 -3,-195.51 60.47,-12.3 173.22,16.68 281.83,-6.88 5.52,-46.71 -19.98,-36.68 -122.93,-41.58 -40.73,-1.95 -121.85,6.79 -152.81,-14.16l-2.5 -346.79c-11.65,2.9 -49.14,4.53 -55.57,10.81 0,-33.27 2.33,-2.46 -12.45,-16.17 11.71,88.69 1.09,264.87 -0.9,362.98l-304.26 2.54 -6.46 -83.56z"/> <path class="fil5" d="M8761.29 10427.51c-4.12,6.23 -1.64,-0.32 -4.41,11.06l-2 55.89 555.98 -1.31 1.41 -66.36 -6.33 23.55c-21.76,-4.9 -13.7,-5.2 -32.15,-11.22 -4.47,-12.43 -2.9,4.22 -1.38,-18.33 -43.16,4.66 -178.92,6.44 -218.12,-2.23 -19.5,6.4 5.12,7.57 -21.33,15.06 -23.29,6.6 -25.73,1.23 -30.95,-15.28 -22.38,7.29 -181.67,8.89 -205.54,2.47l-2.34 -408.29 202.41 3.64c-7.93,-7.23 2.4,-1.81 -11.36,-6.05l-196.26 -3.8c-8.96,52.79 -0.65,268.48 -0.5,351.87 0.07,44.85 10.9,80.83 -24.04,91.72l-3.08 -22.36z"/> </g> <g> <path class="fil6" d="M11735.77 10024.64c63.85,-24.46 159.05,-11.82 232.28,-21.64 2.07,50.65 6.86,309.68 -2.93,341.91 -42.05,26.49 -162.49,23.43 -219.43,21.75l-9.92 -342.01zm221.24 -355.6c16.49,31.11 15.86,257.3 10.56,302.38 -7.97,2.45 -222.92,13.86 -229.68,12.09 -4.62,-30.4 -6.09,-286.13 -0.61,-304.75l219.74 -9.71zm-273.71 -34.4l6.96 767.52c33.06,7.75 307.07,3.28 325.98,-10.64l0.8 -571.59c-0.24,-50.62 4.14,-149.31 -3.15,-194.3l-330.6 9z"/> <path class="fil6" d="M5522.11 8301.83l0.57 -1.91c14,-2.54 5.92,2.51 12.67,-4.95 -7.47,-62.93 10.26,-124.4 2.3,-183.36 -26.65,-4.67 -35.75,4.74 -60.89,4.86 -36.34,0.16 -22.3,-4.12 -36.52,-25.97l-79.65 -2.32c18.54,22.38 20.82,3.74 31.34,66.76 13.62,81.74 98.22,98.19 130.17,146.9z"/> </g> <g> <path class="fil7" d="M2171.56 9959.37c-0.27,-0.98 -1.58,-1.72 -1.81,-3.8 -0.22,-2.06 -1.15,-2.57 -2.02,-3.66 -16.94,-8.33 -211.58,-10.35 -219.95,4.67l2.8 692.32c20.88,13.75 216.2,-2.15 218.14,-3.52 16.11,-11.38 7.65,-334.17 7.49,-350.53 -0.53,-58.07 -1.44,-116.08 -2.39,-174.14l-0.83 -157.23c-0.29,-1.29 -1.16,-3.1 -1.44,-4.11z"/> <path class="fil7" d="M1945.28 9908.53c25.99,5.44 203.17,5.66 227.19,-0.31 2.72,-51.29 11.63,-228.43 -1.19,-264.33 -33.41,-15.99 -176.13,-5.78 -224.37,-3.66l-1.64 268.3z"/> <path class="fil7" d="M1885.71 9913.34c6.42,-42.22 8.65,-250.28 -5.71,-274.63 -26.89,-11.21 -161.75,-11.81 -195.74,-3.01 -6.9,73.96 -1.37,166.57 -1.6,242.71 -0.17,50.33 -2.78,36.13 85.05,35.86 27.17,-0.08 96.53,2.94 118.01,-0.93z"/> </g> <g> <path class="fil8" d="M5625.34 8334.56l-22.22 2.3c-17.73,30.9 -15.44,61.81 -13.18,105.86 3.63,70.71 -33.85,292.03 -21.64,359 4.38,28.78 -5.22,37.91 5.52,61.21 133.33,28.85 350.8,-31.62 468.88,-97.24 55.27,-30.73 165.71,-121.72 204.86,-169.95 69.81,-86.01 173.93,-276.91 169.56,-391.14 -46.19,-15.74 -202.23,-22.82 -263.29,-30.39l-261.85 -28.32c-18.02,34.48 -21.09,41.43 -45.38,69.61 -50.54,58.64 -162.73,123.1 -221.25,119.06z"/> <path class="fil8" d="M2228.2 4854.57c35.39,24.95 130.99,31.18 232.73,145.7 56.12,63.19 93.31,174.47 97.49,286.83 4.26,114.64 -23.46,227.33 -78.41,300.96 -60.11,80.54 -187.42,136.18 -204.6,179.38 33.02,35.83 200.1,14.58 253.83,1.25 78.42,-19.46 139.41,-59.1 189.31,-100.37 116.87,-96.65 171.75,-246.77 167.44,-407.6 -4.87,-181.48 -96.83,-312.08 -197,-377.75 -55.67,-36.48 -132.21,-62.02 -216.28,-68.45 -59.82,-4.57 -220.65,-0.93 -244.51,40.05z"/> </g> <g> <path class="fil9" d="M4820.64 8011.02c42.28,-2.69 104.6,10.62 149.83,14.93 43.12,4.12 100.68,16.23 140.98,17.84l222.08 15.24c27.08,4.14 37.78,6.96 69.87,8.8 81.95,4.68 217.29,35.1 291.98,20.95 29.5,-5.59 102.78,11.55 140.42,15.23 30.74,3 43.06,-1.46 72.34,7.91l355.31 44.55c187.16,10.9 179.33,35.46 180.15,-35.43 3.61,-311.01 -91.46,-547.28 -326.14,-714.42 -213.64,-152.15 -495.05,-212.48 -755.09,-123.4 -175.23,60.04 -275.95,151.24 -365.02,273.6 -35.85,49.25 -92.03,138.93 -116.84,205.2 -12.56,33.55 -64.18,220.59 -59.88,249.01z"/> <path class="fil9" d="M5503.96 8790.79c-1.51,-39.89 5.39,-78.28 7.96,-117.58 2.67,-40.72 4.26,-79.26 6.76,-119.86 4.17,-67.77 24.72,-173.41 16.45,-237.87l-18.03 -10.81c-34.25,-5.9 -106.04,-61.51 -120.89,-81.98 -41.3,-56.91 -47.93,-83.83 -51.81,-140.09 -50.05,-4.3 -83.86,4.63 -129.3,-4.29 -46.47,-9.12 -90.94,-3.69 -137.62,-8.22 -78.32,-7.6 -185.1,-27.04 -262.86,-15.25 -17.62,186.05 74.35,416.34 190.31,548.88 55.44,63.37 121.87,119.59 200.44,169.14 59.09,37.28 202.9,83.68 288.78,81.6l9.82 -63.66z"/> </g> <g> <path class="fil10" d="M18357.88 7970.93l-0.7 -37.16 2.65 -134.78c-110.39,-47.22 -340.19,-16.89 -341.7,-337.74 -0.54,-114.33 32.76,-186.05 86.3,-253.06 54.75,-68.52 131.94,-111.91 226.71,-117.45 132.97,-7.76 186.57,17.58 254.86,84.09 38.87,37.86 107.83,142.04 118.66,218.54 11.24,79.35 -33.24,206.87 -71.18,264.73 -46.29,70.6 -103.4,117.6 -202.73,142.22l-3.99 483.54 5.55 43.84c205.59,-30.73 410.83,-120.36 556.09,-251.47 158.29,-142.87 241.24,-268.26 312.16,-495.02 46.45,-148.51 67.85,-312.82 47.96,-478.33 -15.85,-131.98 -71.54,-311.96 -130.08,-407.19 -201.93,-328.47 -620.27,-601.87 -1061.62,-543.74 -137.47,18.1 -309.14,69.33 -407.83,130.7 -128.3,79.77 -196.26,114.73 -301.6,236.69 -165.72,191.87 -279.76,459.6 -257.2,810.58 17.8,276.92 145.91,559.73 345.3,731.81 215.74,186.18 421.65,273.46 806.3,272.48 5.01,-60.37 7.37,-120.94 11.77,-181.44 3.95,-54.33 -18.14,-136.94 4.3,-181.85z"/> <path class="fil10" d="M3845.74 8252.79l1.85 -370.26c-202.63,-0.92 -373.74,-202.12 -354.85,-421.49 18.42,-213.96 171.64,-392.27 396.23,-380.51 130.62,6.84 200.29,55 275.27,115.92 72.75,59.12 106.5,149.22 104.34,280.73 -1.82,110.86 -50.84,210.81 -100.02,284.89 -86.8,130.78 -226.89,103.74 -258.03,124.95 -3.68,47.05 6.96,114.08 7.5,165.06 0.6,55.47 5.73,126.33 2.18,179.57l10.92 17.4c211.61,-1.2 435.46,-72.65 590.58,-202.41l132.52 -131.36c83.99,-102.34 136.23,-179.45 192.04,-336.02 54.79,-153.71 67.83,-284.28 47.31,-456.91 -53.63,-450.98 -324.38,-742.21 -684.55,-899.55 -248.02,-108.36 -624.74,-75.53 -873.36,46.62 -246.78,121.26 -402.99,290.08 -509.76,546 -44.48,106.63 -85.38,310.04 -76.87,445.48 20.49,326.24 168.02,582.91 331.94,723.35 50.3,43.09 84,78.14 146.62,117.26 108.2,67.6 247.72,125.54 377.99,150.21 170.02,32.2 101.99,14.14 230.52,15.8 9.24,-28.67 0.61,-1.19 9.59,-14.75z"/> <path class="fil10" d="M9763.59 8506.04c4.09,220.43 102.96,390.25 209.78,490.32 130.46,122.24 241.62,194.41 495.61,205.94 144.91,6.6 289.02,-52.6 402.31,-124.97 43.8,-27.98 61.88,-48.64 93.82,-80.51 115,-114.78 195.3,-283.26 182.32,-513.68 -15.75,-279.24 -121.49,-441.13 -302.37,-580.23 -32.03,-24.64 -69.59,-44.73 -111.76,-62.47 -92.22,-38.79 -175.62,-60.98 -290.7,-59.58 -198.68,2.43 -404.88,106.13 -501.06,203.01 -112.8,113.63 -182.12,297.07 -177.95,522.16z"/> </g> <g> <path class="fil11" d="M9763.59 8506.04c-4.17,-225.08 65.15,-408.53 177.95,-522.16 96.18,-96.88 302.38,-200.59 501.06,-203.01 115.08,-1.41 198.48,20.79 290.7,59.58 42.16,17.75 79.72,37.84 111.76,62.47 180.88,139.09 286.62,300.98 302.37,580.23 12.98,230.42 -67.32,398.9 -182.32,513.68 -31.94,31.88 -50.02,52.53 -93.82,80.51 -113.29,72.37 -257.4,131.57 -402.31,124.97 -253.98,-11.54 -365.14,-83.7 -495.61,-205.94 -106.82,-100.07 -205.69,-269.9 -209.78,-490.32zm-4942.95 -495.02c-4.3,-28.42 47.32,-215.47 59.88,-249.01 24.81,-66.27 80.99,-155.95 116.84,-205.2 89.07,-122.35 189.79,-213.56 365.02,-273.6 260.04,-89.08 541.45,-28.75 755.09,123.4 234.68,167.13 329.74,403.41 326.14,714.42 -0.82,70.89 7.01,46.33 -180.15,35.43l-355.31 -44.55c-29.28,-9.37 -41.6,-4.91 -72.34,-7.91 -37.64,-3.68 -110.92,-20.81 -140.42,-15.23 -74.69,14.15 -210.03,-16.27 -291.98,-20.95 -32.1,-1.83 -42.79,-4.66 -69.87,-8.8l-222.08 -15.24c-40.3,-1.62 -97.85,-13.72 -140.98,-17.84 -45.24,-4.31 -107.56,-17.62 -149.83,-14.93zm-2592.43 -3156.45c23.86,-40.98 184.69,-44.62 244.51,-40.05 84.07,6.43 160.61,31.96 216.28,68.45 100.17,65.67 192.13,196.27 197,377.75 4.31,160.83 -50.56,310.95 -167.44,407.6 -49.9,41.27 -110.89,80.91 -189.31,100.37 -53.73,13.33 -220.8,34.58 -253.83,-1.25 17.17,-43.2 144.49,-98.83 204.6,-179.38 54.95,-73.64 82.67,-186.32 78.41,-300.96 -4.18,-112.36 -41.37,-223.64 -97.49,-286.83 -101.74,-114.52 -197.34,-120.75 -232.73,-145.7zm7293.15 698.01c-17.43,78.79 -140.67,152.52 -238.21,174.43 -221.17,49.68 -448.53,-54.99 -565.34,-229.36 -129.09,-192.69 -161.28,-415.14 -49.7,-628.68 102.52,-196.21 267.1,-310.08 502.84,-308.72 104.61,0.6 228.88,53.7 268.84,131.07 -50.83,-26.75 -75.58,-76.53 -208.99,-30.24 -130.74,45.36 -217.04,136.28 -266.8,271.13 -26.04,70.56 -40.26,150.02 -32.75,230.68 6.02,64.84 37.04,156.49 63.55,205.74 59.48,110.54 187.93,203.51 311.27,227.06 39.28,7.51 84.89,11.64 126.29,5.17 46.48,-7.28 57.38,-32.89 89.01,-48.27zm7325.26 -4403.39c21.7,10.29 29.16,41.89 41.68,61.57 14.21,22.31 27.64,36.04 44.23,56.03 90.07,108.63 172.35,41.2 238.99,-57.17 33.28,-49.15 37.34,-86.79 59.26,-140.67 37.57,13.43 66.41,98.96 76.59,134.55 119.01,415.84 -302.77,524.49 -443.49,284.94 -50.51,-86.01 -59.04,-245.73 -17.27,-339.25zm-16846.62 8028.13c43.89,-5.45 85.33,-33.76 128.28,-47.1 157.55,-48.92 293.87,-35.41 410.21,71.97 66.97,61.82 99.59,108.55 119.11,235.82 19.21,125.16 4.92,887.39 5.16,1057.34 0.17,118.13 -0.95,235.29 0.68,353.54 0.68,49.48 -8.38,325 6.9,348.49l528.45 11.53c-39.92,-91.06 -26.37,-669.35 -26.54,-813.8 -0.34,-281.44 3.08,-562.93 3.06,-844.27 0,-81.08 -16.76,-65.58 70.18,-137.04 38.15,-31.35 78.72,-62.82 118.63,-92.41 134.93,-100.06 229.11,-182.15 353.27,-279.95 71.27,-56.13 169.6,-126.68 237.65,-184.44l113.42 -95.85c14.37,-2.79 310.14,201.17 350.93,227.82l523.08 352.75c81.08,53.57 470.27,316.43 513.48,362.15 -22.38,45.82 -6.82,158.08 -5.83,221.63l5.66 469.63c0.84,40.43 0.74,81.22 2.24,121.61 2.03,54.51 14.13,55.09 34.46,84.17 -28.04,18.48 -23.11,13.27 -23.12,57.95 0,115.07 6.62,479.57 -19.62,544.21 114.09,-0.13 229.65,-4.38 344.21,-2.09 62.86,1.25 75.1,7.64 168.85,5.99 23.17,-0.41 150.04,3.37 168.33,-11.52 -73.46,5.62 -262.42,16.14 -316.63,-7.61 -4.7,-24.88 0.64,-44.3 -4.91,-75.5 -11.09,-62.46 26.51,-181.52 43.95,-240.6l-18.57 -355.25c-0.97,-251.64 4.5,-502.92 3.8,-754.57 -0.69,-250.07 3.2,-498.58 3.95,-749.3 0.75,-251.3 8.94,-509.56 3.02,-759.81 -8.97,13.56 -0.34,-13.92 -9.59,14.75 -128.53,-1.66 -60.5,16.4 -230.52,-15.8 -130.27,-24.67 -269.79,-82.61 -377.99,-150.21 -62.62,-39.12 -96.32,-74.17 -146.62,-117.26 -163.92,-140.43 -311.45,-397.11 -331.94,-723.35 -8.51,-135.44 32.39,-338.85 76.87,-445.48 106.76,-255.92 262.98,-424.74 509.76,-546 248.62,-122.16 625.34,-154.98 873.36,-46.62 360.17,157.34 630.92,448.57 684.55,899.55 20.52,172.64 7.48,303.2 -47.31,456.91 -55.8,156.57 -108.05,233.68 -192.04,336.02l-132.52 131.36c-155.13,129.76 -378.97,201.21 -590.58,202.41l-10.92 -17.4c-4.15,98.82 0.96,210.92 1.63,311.32l0.46 949.81c0.04,183.32 -23.85,1140.43 21.82,1232.37 114.99,30.25 62.37,6.63 109.78,80.19 12.68,19.68 32.18,33.12 46.91,47.97 138.98,140.06 104.54,183.39 87.99,306.63 -0.27,2.01 -2.66,21.35 -3.08,22.47 -7.97,20.71 7.88,10.19 -13.4,13.43l27.63 7.02c10.71,0.43 25.82,-0.89 37.26,-1.08 24.63,-0.42 49.25,-0.26 73.88,0.15 284.13,4.7 572.2,-4.7 854.83,-1.62 47.57,0.51 91.31,-5.39 137.31,-3.7 0.85,32.98 -4.81,69.55 7.69,83.79 -4.55,-88.9 7.52,-222.37 12.89,-315.24 18.86,-326.13 35.95,-614.53 65.69,-944.53 18.35,-203.66 44.23,-402.49 60.28,-607.22 8.05,-102.63 18.63,-207.97 27.25,-311l26.95 -311.63 -9.82 63.66c-85.88,2.08 -229.69,-44.32 -288.78,-81.6 -78.56,-49.55 -145,-105.77 -200.44,-169.14 -115.96,-132.54 -207.93,-362.83 -190.31,-548.88 77.76,-11.8 184.54,7.65 262.86,15.25 46.68,4.53 91.15,-0.9 137.62,8.22 45.45,8.92 79.25,-0.01 129.3,4.29 3.89,56.26 10.51,83.18 51.81,140.09 14.85,20.48 86.64,76.08 120.89,81.98l5 -2.83c-31.95,-48.71 -116.55,-65.15 -130.17,-146.9 -10.51,-63.02 -12.8,-44.37 -31.34,-66.76l79.65 2.32c14.21,21.85 0.18,26.13 36.52,25.97 25.14,-0.11 34.24,-9.52 60.89,-4.86 7.96,58.96 -9.77,120.43 -2.3,183.36 -6.75,7.46 1.32,2.41 -12.67,4.95 7.17,7.14 -10.57,6.27 19.99,9.46 -0.78,-52.24 -0.09,-90.81 2.79,-141.87 2.53,-44.76 3.26,-15.88 105.19,-10.44 34.96,-59.11 10.22,-35.1 21.8,-53.36l22.13 0.11c-3.82,18.77 1.22,4.07 -6.02,20.2 21.55,-2.23 120.3,19.14 160.51,21.01 -4.57,33.9 -22.63,51.03 -39.18,65.84 -22.24,19.91 -27.78,33.25 -54.76,50.34 -32.22,20.43 -106,56.86 -156.1,50.46 12.53,14.24 0.85,0.33 13.66,11.28l9.59 8.6c0.74,0.68 2.19,1.88 3.06,3.01 58.52,4.04 170.71,-60.42 221.25,-119.06 24.29,-28.18 27.37,-35.13 45.38,-69.61l261.85 28.32c61.06,7.57 217.1,14.65 263.29,30.39 4.37,114.24 -99.75,305.14 -169.56,391.14 -39.15,48.23 -149.58,139.22 -204.86,169.95 -118.07,65.62 -335.55,126.08 -468.88,97.24 -10.74,-23.3 -1.15,-32.43 -5.52,-61.21 -6.39,13.62 -130.09,1627.61 -139.78,1787.46 -6.14,101.33 -14.84,202.03 -18.65,301.92 -3.92,102.77 -7.19,207.8 -18.89,308.35l740.55 2.16c247.77,0.65 499,0.73 744.43,-4.98l1.59 -94.46c-1.01,-321.95 -0.3,-643.7 -0.8,-965.63 -0.23,-147.42 12.23,-329.06 -0.02,-472.08 -9.55,-111.5 -43.07,-100.34 46.17,-161.26 79.76,-54.46 76.55,-58.94 138.44,-104.33 93.07,-68.26 187.6,-133.75 273.96,-206.12 44.13,-36.96 85.21,-73.18 135.14,-107.67 52.78,-36.47 89.18,-66.85 137.87,-104.89 128.58,-100.47 286.74,-201.94 421.65,-301.24 21.29,-15.67 48.62,-41.27 86.26,-25.67 11.65,4.82 21.37,14.07 36.63,21.23l338.82 204.72c100.75,65.91 196.43,126.69 295.39,190.13 47.92,30.72 96.13,70.42 141.87,95.45l588.07 377.63c22.96,20.56 15.44,64.01 16.38,103.36 0.93,39.36 4.3,76.99 5.9,115.93 3.27,79.72 -0.45,162.59 0.22,242.95 0.67,78.81 4.29,156.26 3.99,237.38 -0.6,159.41 -2.97,321.19 -1.16,480.18l0.92 364.09c0.08,43.3 7.67,77.05 8.62,113.87 261.2,-3.06 523.68,0.46 785.2,-0.08 130.14,-0.27 260.36,-0.93 390.48,-0.94 88.88,-0.01 324.23,-10.64 395.4,5.89 -16.08,-88.34 -8.01,-257.43 -7.61,-356.19l0.59 -1086.99c-0.16,-54.86 -2.49,-212.86 8.68,-263.74 7.35,-33.48 22.01,-25.06 51.02,-37.29 29.87,-12.59 394.97,-281.58 424.43,-304.04 34.64,-26.41 71.73,-48.74 106.34,-73 99.87,-70.04 186.11,-149.82 312.49,-231.08 276.3,-177.65 161.19,-204.72 445.36,-14.86 75.1,50.18 145.35,96.13 220.33,143.97 146.32,93.34 293.22,190.29 436.17,286.5 51.89,34.92 391.58,254.94 428.74,298.29 -12.57,5.65 -13.46,0.02 -44.34,14.52 -6.67,16.48 -13.13,344.27 -15.24,396.98 -5.4,135.42 1.65,266.72 7.14,401.04 5.47,133.86 3.39,268.32 10.21,403.43 3.37,66.82 2.97,136.37 3.28,203.45 0.33,69.6 8.33,138.1 3.67,207.72 -8.45,4.92 -0.96,1.78 -14.64,7.15 187.53,-1.65 380.53,-2.29 567.62,-7.1 -16.36,-31.82 -16,-154.45 -17.55,-202.64l134.47 -4.4 -133.1 2.06c-4.7,-99.93 -0.81,-200.06 -9.23,-298.31 -5.54,-64.67 6.27,-88.76 6.78,-147.82 0.38,-42.89 13.23,-95.77 8.58,-114.84 -3.3,-13.54 -12.88,-13.82 -13.84,-22.26 10.11,-35.12 11.84,-74.56 14.62,-110.83 3.18,-41.48 -11.56,-79.89 -10.99,-116.23 0.68,-44.81 15,-9.75 5.18,-106.21 -4.81,-47.24 2.4,-320.14 4.93,-368.54 2.3,-43.96 -7.73,-69.83 -4.25,-115.96 2.94,-39.08 3.62,-81.89 5.04,-121.49 3.75,-103.75 -30.92,-72.75 85.08,-162.13 71.88,-55.39 213.68,-169.51 280.66,-215.31 50.89,-34.81 96.63,-67.78 143.2,-104.85 89.83,-71.52 191.42,-140.58 285.96,-210.07 48.02,-35.31 96.45,-66.36 145.05,-102.99 50.01,-37.68 88.44,-68 142.02,-105.97 78.48,-55.64 305.04,-206.08 363.56,-253.83 64.88,-52.93 61.04,-16.76 153.28,41.08 26.98,16.91 53.17,31.21 76.54,50.09 72.89,58.9 214.37,145.58 297.06,198.86 52.93,34.11 99.25,62.71 151.05,96.99 246.39,163.05 502.03,327.52 744.73,495.29 51.55,35.64 96.27,66.11 148.07,99.89 67.74,44.16 52.13,47.66 49.15,199.33 -3.17,160.84 1.98,328.65 3.5,490.73 1.54,165.15 2.08,330.82 3.16,496.01 0.53,80.97 3.75,161.89 4.46,242.73 0.73,83.52 -3.02,164.42 0.42,248.03l4.13 8.31c7.37,23.67 -0.91,61.24 -0.71,102.47 0.74,147.91 -33.95,119.59 143,119.05 305.78,-0.95 718.68,8.53 1000.81,-8.86 -32.51,-16.89 -93.94,1.04 -150.23,-63.76 -43.25,-49.79 -43.02,-87.05 -28.11,-163.14 10.75,-54.87 25.5,-116.71 50.95,-160.05 19.71,-33.58 73.26,-101.43 104.62,-111.92 -19.86,-176.41 -34.5,-132.24 -22.17,-329.12 6.83,-108.96 19.77,-222.09 31.16,-327.82 24.27,-225.38 43.08,-442.29 47.41,-669.31 4.36,-229.2 23.67,-467.01 22.92,-696.51 -0.75,-233.93 22.87,-464 19.33,-698.69 -22.45,44.9 -0.35,127.52 -4.3,181.85 -4.4,60.5 -6.75,121.07 -11.77,181.44 -384.65,0.98 -590.56,-86.3 -806.3,-272.48 -199.4,-172.08 -327.5,-454.89 -345.3,-731.81 -22.56,-350.98 91.49,-618.71 257.2,-810.58 105.34,-121.97 173.29,-156.92 301.6,-236.69 98.69,-61.37 270.35,-112.6 407.83,-130.7 441.34,-58.13 859.69,215.27 1061.62,543.74 58.54,95.24 114.23,275.21 130.08,407.19 19.89,165.51 -1.51,329.82 -47.96,478.33 -70.93,226.76 -153.88,352.15 -312.16,495.02 -145.26,131.11 -350.5,220.74 -556.09,251.47l-5.55 -43.84c-7.42,136.35 -0.91,275.69 -6.54,412.14 -5.71,138.1 -8.5,272 -12.12,411.72 -6.67,256.94 -17.16,539.55 -46.7,794.57 -7.26,62.68 -7.57,131.85 -13.06,193.45 -5.58,62.65 -17,125.07 -20.97,188.33 -15.01,238.67 -23.21,226.42 77.81,332.62 57.46,60.41 122.59,173.87 139.9,280.86 17.52,108.2 20.43,217.7 -86.48,268.3 -18,8.53 -24.71,6.51 -36.64,18.16 25.56,-0.83 104.3,12.04 167.98,12.87 443.65,5.78 870.15,3.16 1313.77,0.46l0 -11197.34 -19903.72 0 0 9177.33z"/> <path class="fil11" d="M7614.31 10226.44c11.86,144.69 -3.79,459.69 7.6,544.39 39.42,-1.55 225.99,5.55 243,-8.63 23.52,-21.25 11.03,-475.86 10.16,-536.72l-260.76 0.96z"/> <path class="fil11" d="M7615.02 10181.52l253.84 -11.34c2.12,-3.9 1.44,3.02 3.91,-12.9l0.13 -237.09c0.45,-44.78 2.96,-214.21 -7.58,-246.22 -36.32,-5.22 -137.44,2.77 -182.44,3.35 -98.66,1.27 -64.52,-4.03 -65.8,116.24 -1.38,129.71 1.92,258.12 -2.05,387.97z"/> </g> <path class="fil12" d="M-0 9177.33l0 4088.3 19903.72 0 0 -2068.28c-443.62,2.7 -870.12,5.33 -1313.77,-0.46 -63.67,-0.83 -142.41,-13.7 -167.98,-12.87 -24.49,-1.07 -44.14,6.01 -69.54,7.14 -23.12,1.01 -48.98,-3.35 -70.43,0.1 -282.13,17.39 -695.03,7.91 -1000.81,8.86 -176.95,0.54 -142.26,28.86 -143,-119.05 -0.2,-41.23 8.08,-78.8 0.71,-102.47l-4.13 -8.31c-4.35,20.68 3.26,7.99 -6.61,17.46 -24.59,-6.57 -24.37,-6.89 -45.05,2.8l39.77 1.65c4.27,7.98 3.02,187.58 -5,195.11 -22.85,9.98 -1371.56,-0.4 -1525.24,-0.57 -253.69,-0.3 -508.12,6.48 -759.84,4.44 -128.48,-1.04 -256.75,-1.99 -385.19,-0.76 -62.85,0.6 -126.92,-0.21 -189.97,-0.13 -52.05,0.08 -143.26,-4.06 -190.47,3.57 -187.09,4.8 -380.09,5.45 -567.62,7.1 -149.78,14.37 -338.66,6.28 -492.5,8.36 -163.83,2.2 -331.42,-3.2 -494.08,1.26 -110.24,-7.64 -233.29,-3.74 -344.91,-5.02l-1045.14 -0.47c-71.17,-16.53 -306.52,-5.9 -395.4,-5.89 -130.12,0.01 -260.34,0.67 -390.48,0.94 -261.52,0.54 -523.99,-2.98 -785.2,0.08 -84.97,12.29 -246.71,4.47 -338.74,3.93l-1002.57 0.46c-223.23,0.07 -447.73,3.62 -664.87,4.88 -113.36,0.66 -223.95,-3.63 -332.43,-4.11 -55.96,-0.25 -298.81,4.46 -331.39,-5.68l-4.31 -97.53 -1.59 94.46c-245.43,5.71 -496.66,5.63 -744.43,4.98l-740.55 -2.16c-0.48,3.77 -7.96,96.95 -12.29,84.63 -0.27,-0.78 -1.31,2.5 -2.16,3.63 -17.22,5.8 -52.39,4.8 -65.63,-7.31 -12.51,-14.24 -6.84,-50.8 -7.69,-83.79 -46,-1.69 -89.74,4.21 -137.31,3.7 -282.63,-3.08 -570.7,6.32 -854.83,1.62 -24.63,-0.41 -49.25,-0.56 -73.88,-0.15 -11.43,0.2 -26.54,1.51 -37.26,1.08l-27.63 -7.02c-18.24,-8.91 -21.97,-3.29 -41.17,-0.41 -18.29,14.88 -145.17,11.11 -168.33,11.52 -93.75,1.65 -105.99,-4.74 -168.85,-5.99 -114.56,-2.28 -230.12,1.97 -344.21,2.09 -59.22,-7.77 -106.51,-21.64 -167.68,-26.7 -148.4,-12.24 -423.12,-1.04 -575.12,0.88 -7.19,14.1 -1.19,10.44 -11.06,23.22 -165.77,7.06 -588.84,14.05 -748.79,9.33 -151.05,-4.45 -614.81,-10.5 -748.32,-0.86l-528.45 -11.53c-15.28,-23.49 -6.22,-299.01 -6.9,-348.49 -1.63,-118.25 -0.51,-235.4 -0.68,-353.54 -0.24,-169.96 14.05,-932.19 -5.16,-1057.34 -19.52,-127.27 -52.15,-174 -119.11,-235.82 -116.33,-107.38 -252.66,-120.88 -410.21,-71.97 -42.96,13.34 -84.39,41.65 -128.28,47.1z"/> <path class="fil13" d="M15070.1 10801.43c-12.6,17.32 -9.32,9.38 -36.47,9.07l-111.11 -0.32c-49.12,0.82 -100.55,3.75 -149.76,3.64 -7.86,-51.73 -0.36,-180.27 1.18,-239.31 1.05,-40.42 2.46,-80.93 3.3,-121.36 0.59,-28.14 -7.95,-104.98 3.82,-108.65 8.43,-7.97 24.56,-7.72 35.56,-7.62l111.17 1.85c50.39,2.05 129.11,-11.14 144.59,-2.79 7.29,25.95 3.99,432.9 -2.28,465.5zm1579.6 -892l152.27 4.88c6.22,36.94 9,331.1 -1.38,347.78 -17.06,10.08 -118.23,7.79 -146.04,2.93l-4.86 -355.59zm-1882.42 -134.66l5.73 -284.56c71.37,-0.7 248.62,15.73 305.89,2.59 14.79,13.71 12.45,-17.1 12.45,16.17 6.43,-6.27 43.91,-7.91 55.57,-10.81 12.95,-8.31 256.72,-5.9 290.98,-3.75 2.39,128.02 0.44,260.37 -1.72,388.84l4.24 385.23c11.83,13.78 12.33,42.89 8.74,63.65l-7.28 20.72c-30.29,141.13 -5.1,320 -8.12,443.56l-19.82 -80.2c-30.64,-174.48 -4.42,-153.52 -16.49,-274.77 -7.73,3.55 -41.8,46.44 -47.47,63.46 -16.07,48.2 38.38,231.8 50.97,301.77 -9.92,8.28 15.95,7.16 -22.93,9.11l-227.36 -6.21c-1.18,-0.33 -3.45,-0.14 -4.28,-1.99 -0.83,-1.85 -2.94,-1.24 -4.18,-2.22 -7.91,-70.74 3.12,-155.85 0.13,-231.08 -2.76,-69.36 1.29,-174.82 -5.56,-237.13l2.06 -26.79c-40.43,-0.46 -39.39,-7.01 -48.5,-7.24 -11.54,-0.28 -0.57,-0.53 -11.24,2.09 -14.58,3.6 -27.34,11.36 -51.2,3.43 -17.5,-5.83 -3.94,5.89 -14.77,-8.62l-112.05 -2.95c-34.89,-1.1 -93.81,7.78 -121.02,-8.59 -10.19,-35.52 -9.24,-141.89 -9.56,-183.62 -0.33,-44.9 6.12,-151.43 -0.82,-186.65 2.22,-45.24 -13.88,-100.76 -2.4,-143.46zm1894.1 -163.29c16.43,-5.5 135.69,-8.77 152.93,-2.56l-6.83 264.02 -139.53 0.6c-11.94,-24.91 -13.6,-229.69 -6.58,-262.06zm-2477.27 1375.34c107.97,7.36 251.19,-1.83 363.76,-1.89l1809.91 -1.82c241.16,-1.24 486.7,11.09 725.35,7.43 20.68,-9.69 20.46,-9.37 45.05,-2.8 9.87,-9.46 2.26,3.22 6.61,-17.46 -3.44,-83.61 0.31,-164.51 -0.42,-248.03 -0.71,-80.84 -3.93,-161.76 -4.46,-242.73 -1.07,-165.2 -1.62,-330.86 -3.16,-496.01 -1.52,-162.08 -6.67,-329.89 -3.5,-490.73 2.98,-151.68 18.59,-155.17 -49.15,-199.33 -51.8,-33.77 -96.52,-64.25 -148.07,-99.89 -242.71,-167.77 -498.35,-332.24 -744.73,-495.29 -51.8,-34.27 -98.12,-62.88 -151.05,-96.99 -82.69,-53.27 -224.18,-139.96 -297.06,-198.86 -23.37,-18.88 -49.56,-33.18 -76.54,-50.09 -92.25,-57.84 -88.4,-94.01 -153.28,-41.08 -58.52,47.75 -285.08,198.19 -363.56,253.83 -53.57,37.97 -92.01,68.29 -142.02,105.97 -48.6,36.63 -97.03,67.68 -145.05,102.99 -94.54,69.49 -196.14,138.55 -285.96,210.07 -46.56,37.07 -92.31,70.04 -143.2,104.85 -66.98,45.8 -208.78,159.92 -280.66,215.31 -116,89.38 -81.33,58.38 -85.08,162.13 -1.43,39.6 -2.11,82.41 -5.04,121.49 -3.48,46.12 6.55,72 4.25,115.96 -2.53,48.41 -9.74,321.3 -4.93,368.54 9.82,96.46 -4.5,61.4 -5.18,106.21 -0.56,36.34 14.17,74.75 10.99,116.23 -2.78,36.27 -4.51,75.71 -14.62,110.83 0.96,8.44 10.54,8.72 13.84,22.26 4.66,19.07 -8.2,71.95 -8.58,114.84 -0.51,59.07 -12.33,83.15 -6.78,147.82 8.42,98.25 4.53,198.39 9.23,298.31l133.1 -2.06z"/> <path class="fil14" d="M7307.36 9633.16c46.48,-8.61 372.75,-2.26 457.78,-5.86 196.96,-8.33 164.27,-7.56 163.72,60.69l-0.85 1147.35c-97.06,-3.96 -210.9,-4.56 -308.44,-3.48 -54.49,0.6 -261.54,20.84 -292.49,8.9 -24.59,-47.87 -10.33,-514.45 -11.59,-609.24l-2.53 -459.08c-0.41,-25.54 -0.03,-53.18 -1.62,-78.48 -1.57,-25.08 -11.46,-44.66 -3.97,-60.81zm2004.9 793.63l-1.41 66.36 -555.98 1.31 2 -55.89c2.77,-11.38 0.29,-4.82 4.41,-11.06l-6.29 -807.06c31.68,-21.43 220.48,-2.21 273.44,-3.55 54.6,-1.4 241.05,-17.24 276.15,1.45 12.98,15.38 7.37,518.21 8.55,607.89 0.84,63.69 -5.41,140.31 -0.86,200.54zm-2434.71 675.38l4.31 97.53c32.58,10.14 275.43,5.43 331.39,5.68 108.48,0.48 219.07,4.76 332.43,4.11 217.13,-1.26 441.64,-4.8 664.87,-4.88l1002.57 -0.46c92.03,0.54 253.76,8.36 338.74,-3.93 -0.95,-36.82 -8.53,-70.57 -8.62,-113.87l-0.92 -364.09c-1.81,-158.99 0.55,-320.77 1.16,-480.18 0.3,-81.12 -3.32,-158.57 -3.99,-237.38 -0.67,-80.36 3.05,-163.23 -0.22,-242.95 -1.59,-38.94 -4.97,-76.57 -5.9,-115.93 -0.94,-39.35 6.58,-82.8 -16.38,-103.36l-588.07 -377.63c-45.74,-25.03 -93.96,-64.73 -141.87,-95.45 -98.96,-63.44 -194.63,-124.22 -295.39,-190.13l-338.82 -204.72c-15.26,-7.16 -24.98,-16.4 -36.63,-21.23 -37.63,-15.6 -64.97,9.99 -86.26,25.67 -134.91,99.3 -293.07,200.77 -421.65,301.24 -48.69,38.04 -85.09,68.41 -137.87,104.89 -49.93,34.49 -91.01,70.71 -135.14,107.67 -86.36,72.36 -180.89,137.86 -273.96,206.12 -61.89,45.38 -58.68,49.86 -138.44,104.33 -89.24,60.91 -55.71,49.76 -46.17,161.26 12.26,143.02 -0.21,324.66 0.02,472.08 0.5,321.93 -0.21,643.68 0.8,965.63z"/> <path class="fil15" d="M2725.54 11059.97c10.68,7.88 -1.04,2.56 13.62,5.08l305.7 8.55c103.54,2.21 215.78,11.11 316.95,11.21l-9.06 83.76c-59.11,-8.94 -88.65,-17.15 -155.08,-18.84l-337.71 -0.68c-95.45,1.53 -67.84,-3.73 -156.63,11.23l0.93 -214.41c98.08,31.74 580.1,40.58 650.16,-11.09l2.32 119.4c-53.53,-1.38 -92.27,-11.38 -153.79,-9.39l-416.79 -1.48c-33.15,-2.8 -61.12,-25.73 -60.63,16.65zm271.63 -128.7c-102.39,-0.05 -188.01,-9.95 -292.62,-0.34l3.37 -47.31c3.13,-0.59 5.25,-2.96 6.11,-1.62 0.86,1.34 3.25,-1.31 4.47,-1.59 1.24,-0.3 3.08,-1 4.65,-1.31l321.58 -1.08c53.2,-0.45 106.16,-5.11 158.1,-8.23 25.74,-1.55 56.87,-0.99 81.68,-4.92 20.79,-3.28 50.81,-9.47 76.72,-10.49 13.19,78.87 -9.35,71.24 -142.38,72.38 -73.94,0.64 -147.75,4.55 -221.67,4.52zm-762.44 -1362.09c13.45,66.86 1.48,1114.85 -4.44,1124.64 -8.09,6.41 -9.74,1.81 -29.24,0.48 -157.07,-10.84 -388.68,7.58 -571.65,-10.83l-1.58 -1101.95 606.91 -12.35zm800.22 1110.89c0.69,1.66 1.41,2.23 1.67,5.12l5.09 31.91c0.79,12.61 1.33,25.75 2.07,38.46l45.03 -0.35 208.12 -13.64c35.1,-6.97 14.36,-22.41 43.23,-29.47 4.68,11.36 21.71,89.73 4.06,104.94 -25.45,21.93 -471,29.92 -558.04,34.3 -31.26,1.58 -48.13,13.45 -79.23,9.25 -18,-43.17 4.16,-586.72 -7.18,-685.97l-1.38 -12.95 -3.94 -267.84c38.37,-16.42 289.45,-18.62 337.09,-8.02 10.18,104.79 4.95,458.68 3.16,599.01 -0.74,57.72 5.46,143.32 0.25,195.26zm-1836.16 528.84c133.5,-9.64 597.26,-3.58 748.32,0.86 159.94,4.72 583.02,-2.27 748.79,-9.33 9.87,-12.78 3.87,-9.12 11.06,-23.22 152,-1.92 426.72,-13.12 575.12,-0.88 61.16,5.05 108.45,18.92 167.68,26.7 26.24,-64.64 19.62,-429.14 19.62,-544.21 0.01,-44.69 -4.92,-39.48 23.12,-57.95 -20.33,-29.09 -32.43,-29.66 -34.46,-84.17 -1.5,-40.39 -1.4,-81.18 -2.24,-121.61l-5.66 -469.63c-0.99,-63.55 -16.56,-175.8 5.83,-221.63 -43.21,-45.73 -432.4,-308.58 -513.48,-362.15l-523.08 -352.75c-40.79,-26.65 -336.56,-230.61 -350.93,-227.82l-113.42 95.85c-68.05,57.76 -166.38,128.31 -237.65,184.44 -124.17,97.8 -218.34,179.89 -353.27,279.95 -39.91,29.6 -80.48,61.07 -118.63,92.41 -86.93,71.46 -70.18,55.96 -70.18,137.04 0.02,281.35 -3.41,562.83 -3.06,844.27 0.18,144.46 -13.38,722.74 26.54,813.8z"/> <path class="fil16" d="M12013.89 9625.64c7.28,44.99 2.91,143.69 3.15,194.3l-0.8 571.59c-18.91,13.92 -292.93,18.39 -325.98,10.64l-6.96 -767.52 330.6 -9zm-890.96 1579.44l1045.14 0.47c111.62,1.28 234.66,-2.62 344.91,5.02 6.19,-134.38 1.04,-276.67 5.93,-413.71 8.41,-235.56 2.77,-388.78 -0.82,-612.94 -1.03,-64.17 -7.41,-130.15 -7.63,-195.13 -0.23,-65.88 5.98,-348.1 18.23,-401.61l976.46 -6.01c30.88,-14.5 31.77,-8.87 44.34,-14.52 -37.16,-43.35 -376.86,-263.37 -428.74,-298.29 -142.96,-96.21 -289.85,-193.15 -436.17,-286.5 -74.98,-47.83 -145.23,-93.79 -220.33,-143.97 -284.16,-189.86 -169.05,-162.79 -445.36,14.86 -126.38,81.25 -212.62,161.04 -312.49,231.08 -34.61,24.26 -71.7,46.59 -106.34,73 -29.46,22.46 -394.56,291.45 -424.43,304.04 -29.01,12.22 -43.67,3.8 -51.02,37.29 -11.17,50.88 -8.84,208.88 -8.68,263.74l-0.59 1086.99c-0.41,98.76 -8.47,267.85 7.61,356.19z"/> <path class="fil17" d="M13279.72 9899.84c20.45,41.66 -0.65,214.91 -0.07,247.19 0.51,28.15 2.41,56.29 2.92,84.49 1.23,67.53 9.57,282.68 -3.43,335.34 -29.21,5.85 -326.97,-1.07 -340.32,-7.86l-7.67 -31.83c-8.67,-160.85 -14.24,-337.22 -12.48,-496.18 13.52,-7.99 6.6,-3.81 15.12,-13.16l-16.86 -1.55c-6.55,-36.88 -2.72,-165.83 -23.92,-183.41 -18.71,-16.29 -34.4,6.98 -51.13,-23.49 33.97,-12.94 384.92,-14.9 439.8,-8.3l-1.96 98.75zm-766.74 1310.73c162.66,-4.46 330.25,0.94 494.08,-1.26 153.84,-2.07 342.72,6.01 492.5,-8.36 13.68,-5.37 6.19,-2.23 14.64,-7.15 4.66,-69.62 -3.33,-138.12 -3.67,-207.72 -0.31,-67.08 0.08,-136.63 -3.28,-203.45 -6.83,-135.11 -4.74,-269.57 -10.21,-403.43 -5.49,-134.33 -12.54,-265.62 -7.14,-401.04 2.11,-52.71 8.57,-380.51 15.24,-396.98l-976.46 6.01c-12.24,53.51 -18.46,335.73 -18.23,401.61 0.22,64.99 6.6,130.96 7.63,195.13 3.6,224.16 9.23,377.38 0.82,612.94 -4.89,137.04 0.26,279.33 -5.93,413.71z"/> <path class="fil18" d="M14184.11 10986.82l-134.47 4.4c1.55,48.19 1.19,170.82 17.55,202.64 47.21,-7.64 138.41,-3.49 190.47,-3.57 63.05,-0.08 127.12,0.73 189.97,0.13 128.44,-1.23 256.71,-0.28 385.19,0.76 251.72,2.04 506.15,-4.74 759.84,-4.44 153.68,0.18 1502.39,10.56 1525.24,0.57 8.02,-7.53 9.27,-187.13 5,-195.11l-39.77 -1.65c-238.65,3.66 -484.18,-8.67 -725.35,-7.43l-1809.91 1.82c-112.57,0.05 -255.79,9.24 -363.76,1.89z"/> <path class="fil19" d="M18357.19 7933.77l0.7 37.16c3.54,234.69 -20.08,464.76 -19.33,698.69 0.75,229.5 -18.56,467.31 -22.92,696.51 -4.32,227.02 -23.13,443.94 -47.41,669.31 -11.39,105.72 -24.33,218.85 -31.16,327.82 -12.34,196.88 2.3,152.71 22.17,329.12 -31.36,10.49 -84.91,78.35 -104.62,111.92 -25.45,43.34 -40.19,105.18 -50.95,160.05 -14.91,76.09 -15.14,113.35 28.11,163.14 56.29,64.8 117.72,46.86 150.23,63.76 21.45,-3.45 47.3,0.91 70.43,-0.1 25.4,-1.13 45.05,-8.21 69.54,-7.14 11.93,-11.65 18.64,-9.63 36.64,-18.16 106.91,-50.6 104,-160.1 86.48,-268.3 -17.31,-106.99 -82.44,-220.45 -139.9,-280.86 -101.02,-106.2 -92.82,-93.95 -77.81,-332.62 3.97,-63.26 15.39,-125.68 20.97,-188.33 5.49,-61.6 5.79,-130.76 13.06,-193.45 29.53,-255.01 40.03,-537.62 46.7,-794.57 3.62,-139.72 6.41,-273.62 12.12,-411.72 5.64,-136.45 -0.88,-275.79 6.54,-412.14l3.99 -483.54c4.19,-54.52 -0.63,-119.63 6.04,-170.08 5.34,-40.39 3.39,-34.55 -0.73,-73.95 -3.15,-30.12 3.16,-50.57 5.37,-79.29 4.19,-54.45 2.06,-118.93 1.24,-174.07 -0.89,-59.3 -7.54,-112.4 -75.16,-84.77 -18.75,48.91 6.97,282.54 3.89,355.12 -2.11,49.66 -6.43,339.59 -14.22,360.49z"/> <path class="fil20" d="M3847.6 7882.53c4.17,-96.17 -21.14,-420.89 8.47,-479.67 49.43,-1.68 45.27,39.04 46.33,84.57 1.07,45.64 1.53,91.73 2.06,137.41 0.57,48.3 -4.9,231.62 6.08,262.19 31.14,-21.21 171.23,5.84 258.03,-124.95 49.18,-74.08 98.2,-174.03 100.02,-284.89 2.17,-131.51 -31.59,-221.61 -104.34,-280.73 -74.98,-60.92 -144.66,-109.09 -275.27,-115.92 -224.6,-11.77 -377.81,166.55 -396.23,380.51 -18.89,219.37 152.22,420.57 354.85,421.49z"/> <path class="fil21" d="M9521.36 5552.58c-31.63,15.38 -42.53,40.99 -89.01,48.27 -41.4,6.47 -87.02,2.34 -126.29,-5.17 -123.33,-23.55 -251.78,-116.53 -311.27,-227.06 -26.51,-49.25 -57.52,-140.9 -63.55,-205.74 -7.5,-80.66 6.71,-160.12 32.75,-230.68 49.76,-134.85 136.06,-225.76 266.8,-271.13 133.41,-46.29 158.16,3.49 208.99,30.24 -39.96,-77.37 -164.24,-130.46 -268.84,-131.07 -235.74,-1.35 -400.32,112.52 -502.84,308.72 -111.58,213.54 -79.39,436 49.7,628.68 116.81,174.37 344.18,279.03 565.34,229.36 97.53,-21.91 220.77,-95.63 238.21,-174.43z"/> <path class="fil22" d="M3847.6 7882.53l-1.85 370.26c5.92,250.25 -2.27,508.51 -3.02,759.81 -0.75,250.72 -4.64,499.22 -3.95,749.3 0.7,251.65 -4.77,502.93 -3.8,754.57l18.57 355.25c-17.43,59.08 -55.03,178.14 -43.95,240.6 5.54,31.2 0.21,50.63 4.91,75.5 54.21,23.75 243.18,13.22 316.63,7.61 19.21,-2.89 22.94,-8.5 41.17,0.41 21.28,-3.24 5.43,7.27 13.4,-13.43 0.43,-1.12 2.81,-20.46 3.08,-22.47 16.56,-123.24 50.99,-166.57 -87.99,-306.63 -14.72,-14.85 -34.22,-28.29 -46.91,-47.97 -47.41,-73.56 5.21,-49.94 -109.78,-80.19 -45.68,-91.93 -21.78,-1049.05 -21.82,-1232.37l-0.46 -949.81c-0.67,-100.4 -5.77,-212.5 -1.63,-311.32 3.55,-53.23 -1.57,-124.09 -2.18,-179.57 -0.54,-50.98 -11.18,-118.01 -7.5,-165.06 -10.97,-30.58 -5.5,-213.89 -6.08,-262.19 -0.53,-45.69 -0.99,-91.77 -2.06,-137.41 -1.06,-45.53 3.1,-86.24 -46.33,-84.57 -29.62,58.79 -4.3,383.51 -8.47,479.67z"/> <path class="fil23" d="M18357.19 7933.77c7.79,-20.89 12.12,-310.83 14.22,-360.49 3.08,-72.58 -22.63,-306.21 -3.89,-355.12 67.61,-27.64 74.27,25.47 75.16,84.77 0.82,55.15 2.95,119.62 -1.24,174.07 -2.21,28.72 -8.51,49.18 -5.37,79.29 4.12,39.4 6.07,33.56 0.73,73.95 -6.67,50.45 -1.85,115.56 -6.04,170.08 99.33,-24.61 156.44,-71.61 202.73,-142.22 37.93,-57.86 82.42,-185.38 71.18,-264.73 -10.84,-76.5 -79.79,-180.68 -118.66,-218.54 -68.29,-66.51 -121.88,-91.85 -254.86,-84.09 -94.77,5.53 -171.96,48.93 -226.71,117.45 -53.53,67.01 -86.84,138.73 -86.3,253.06 1.51,320.84 231.31,290.52 341.7,337.74l-2.65 134.78z"/> <path class="fil24" d="M1680.95 10640.9c-3.85,-27.8 5.62,-530.12 0.91,-646.95 -2.52,-62.62 2.72,-46.53 106.94,-47.65 16.97,-0.19 36.36,0.35 53.02,-0.79 23.73,-1.65 24.82,-7.78 43.35,-6.82 10.74,58.45 0.93,170 1.34,234.79 0.3,48.04 4.5,459.61 -1.94,471.75 -7.17,13.53 -20.44,4.54 -41.83,1.58 -57.35,-7.92 -146.91,-0.07 -161.8,-5.92zm486.77 -688.99c0.88,1.08 1.8,1.59 2.02,3.66 0.23,2.08 1.54,2.82 1.81,3.8 0.28,1.01 1.15,2.81 1.44,4.11l0.83 157.23c0.95,58.06 1.85,116.07 2.39,174.14 0.16,16.36 8.62,339.15 -7.49,350.53 -1.95,1.38 -197.26,17.27 -218.14,3.52l-2.8 -692.32c8.37,-15.02 203,-13 219.95,-4.67zm-220.8 -311.67c48.24,-2.13 190.96,-12.33 224.37,3.66 12.82,35.9 3.91,213.04 1.19,264.33 -24.02,5.97 -201.2,5.75 -227.19,0.31l1.64 -268.3zm-61.21 273.11c-21.48,3.87 -90.84,0.84 -118.01,0.93 -87.83,0.27 -85.21,14.47 -85.05,-35.86 0.24,-76.14 -5.29,-168.75 1.6,-242.71 33.99,-8.8 168.85,-8.2 195.74,3.01 14.36,24.34 12.13,232.41 5.71,274.63zm-257.89 -331.81l1.58 1101.95c182.97,18.4 414.58,-0.01 571.65,10.83 19.5,1.33 21.15,5.93 29.24,-0.48 5.92,-9.8 17.89,-1057.78 4.44,-1124.64l-606.91 12.35z"/> <path class="fil25" d="M7353.91 10225.19l219.37 4.93c-1.2,89.64 0.74,179.37 0.03,270.51 -0.33,43.91 -1.16,88.05 0.11,131.92 0.99,34.37 12.61,107.87 -8.15,130.92 -24.45,13.07 -167.81,18.69 -200.62,13.09 -8.11,-19.09 -15.39,-503.14 -10.75,-551.37zm260.4 1.25l260.76 -0.96c0.86,60.86 13.36,515.47 -10.16,536.72 -17.01,14.18 -203.58,7.08 -243,8.63 -11.39,-84.69 4.26,-399.7 -7.6,-544.39zm-256.69 -546.85c15.29,-6.64 192.09,-9.34 212.32,-0.74 3.26,39.18 -2.52,83.76 -0.9,125.25 2.31,59.24 14.25,338.99 -2.15,362.36 -8.43,7.5 1.55,2.13 -11.67,6.02 -19.53,5.75 -192.11,4.7 -197.71,3.57l-2.25 -197.82c0.21,-41.75 -7.95,-271.52 2.36,-298.65zm257.4 501.93c3.97,-129.85 0.68,-258.26 2.05,-387.97 1.28,-120.27 -32.86,-114.97 65.8,-116.24 45,-0.57 146.12,-8.57 182.44,-3.35 10.54,32.01 8.02,201.44 7.58,246.22l-0.13 237.09c-2.47,15.92 -1.79,9 -3.91,12.9l-253.84 11.34zm-307.66 -548.37c-7.49,16.14 2.4,35.72 3.97,60.81 1.58,25.3 1.21,52.94 1.62,78.48l2.53 459.08c1.26,94.79 -13.01,561.36 11.59,609.24 30.95,11.94 238,-8.3 292.49,-8.9 97.54,-1.08 211.38,-0.48 308.44,3.48l0.85 -1147.35c0.55,-68.25 33.24,-69.02 -163.72,-60.69 -85.03,3.6 -411.3,-2.75 -457.78,5.86z"/> <path class="fil26" d="M5522.68 8299.92l-0.57 1.91 -5 2.83 18.03 10.81c8.26,64.46 -12.29,170.1 -16.45,237.87 -2.5,40.6 -4.1,79.15 -6.76,119.86 -2.57,39.3 -9.47,77.69 -7.96,117.58l-26.95 311.63c-8.62,103.02 -19.21,208.37 -27.25,311 -16.05,204.72 -41.92,403.56 -60.28,607.22 -29.74,329.99 -46.83,618.4 -65.69,944.53 -5.37,92.87 -17.44,226.34 -12.89,315.24 13.25,12.11 48.42,13.11 65.63,7.31 0.84,-1.13 1.89,-4.41 2.16,-3.63 4.32,12.32 11.81,-80.86 12.29,-84.63 11.7,-100.55 14.98,-205.58 18.89,-308.35 3.81,-99.89 12.52,-200.59 18.65,-301.92 9.69,-159.85 133.39,-1773.84 139.78,-1787.46 -12.2,-66.97 25.27,-288.29 21.64,-359 -2.26,-44.05 -4.54,-74.96 13.18,-105.86l22.22 -2.3c-0.88,-1.14 -2.32,-2.33 -3.06,-3.01l-9.59 -8.6c-12.81,-10.94 -1.14,2.96 -13.66,-11.28 -50.84,-13.53 77.39,-176.18 89.54,-187.65 7.24,-16.12 2.2,-1.43 6.02,-20.2l-22.13 -0.11c-11.58,18.26 13.16,-5.75 -21.8,53.36 -101.93,-5.44 -102.66,-34.32 -105.19,10.44 -2.89,51.06 -3.57,89.63 -2.79,141.87 -30.55,-3.19 -12.82,-2.32 -19.99,-9.46z"/> <path class="fil27" d="M15440.41 10268.49l-4.24 -385.23c2.16,-128.47 4.11,-260.82 1.72,-388.84 -34.25,-2.15 -278.02,-4.55 -290.98,3.75l2.5 346.79c30.96,20.96 112.09,12.21 152.81,14.16 102.95,4.9 128.45,-5.13 122.93,41.58 -108.61,23.56 -221.35,-5.42 -281.83,6.88 -8.56,56.06 8.07,128.5 3,195.51 -3.71,49.19 -8.95,145.46 -1.91,192.65 47.92,3.11 103.29,4.68 151.33,0.84 26.68,-2.13 49.01,0.59 75.43,-2.3 43.03,-4.73 31.34,7.65 70.5,6.46l-1.27 -32.26z"/> <path class="fil28" d="M16846.62 1149.2c-41.77,93.52 -33.24,253.24 17.27,339.25 140.72,239.55 562.5,130.9 443.49,-284.94 -10.18,-35.59 -39.03,-121.11 -76.59,-134.55 -21.93,53.89 -25.98,91.53 -59.26,140.67 -66.63,98.38 -148.92,165.8 -238.99,57.17 -16.59,-20 -30.01,-33.72 -44.23,-56.03 -12.53,-19.68 -19.99,-51.28 -41.68,-61.57z"/> <path class="fil29" d="M2699.77 10174.61l22.8 0.17c4.46,44.2 -0.26,104.84 1.17,151.74 1.49,49.24 1.32,98.29 2.39,147.73 1.99,92.4 1.23,204.72 14.12,293.36 46.92,12.47 125.93,8.02 177.77,10.16 48.48,2 41.49,4.93 86.29,-7.23 23.8,-6.46 69.12,0.59 84.5,-15.34l-45.03 0.35c-0.74,-12.71 -1.28,-25.85 -2.07,-38.46l-5.09 -31.91c-0.26,-2.89 -0.98,-3.46 -1.67,-5.12l-0.41 78.53c-20.38,5.51 -14.93,6.55 -37.43,6.65 -8.18,-30.06 -5.14,-349.5 -10.65,-448.97 -2.22,-40.03 0.26,-114.58 -6.42,-152.07 -40.67,-11.99 -215.83,6.53 -281.65,-2.54l1.38 12.95z"/> <path class="fil30" d="M1680.95 10640.9c14.89,5.85 104.45,-2 161.8,5.92 21.39,2.96 34.66,11.94 41.83,-1.58 6.44,-12.14 2.24,-423.71 1.94,-471.75 -0.42,-64.79 9.4,-176.34 -1.34,-234.79 -18.53,-0.97 -19.62,5.17 -43.35,6.82 -16.66,1.15 -36.06,0.6 -53.02,0.79 -104.22,1.12 -109.46,-14.98 -106.94,47.65 4.71,116.83 -4.75,619.15 -0.91,646.95z"/> <path class="fil31" d="M9260.47 9977.09c-7.38,5.31 0.97,1.9 -11.49,4.68 -6.43,1.44 -7.76,1.19 -14.36,1.45 -7.18,0.27 -18.85,-0.47 -26.72,-0.53l-162.87 0.2c-3.97,-48.57 1.51,-115.92 0.38,-168.23 -0.97,-44.83 -10.07,-120.14 -6.95,-158.64 19.49,-1.58 191.29,-6.34 216.5,-0.93 1.35,0.29 3.81,3.03 4.77,1.59 0.97,-1.45 3.23,1 4.73,1.76 5.97,38.41 7.6,293.18 -3.98,318.65zm-337.56 5.24c-32.31,-0.38 -102.21,3.76 -129.02,-1.66 -4.13,-28.46 -7.7,-305.09 -4.94,-327.12l201.79 -1.9c11.18,66.92 4.22,194.55 6.09,268.54 2.07,81.71 9.11,63.09 -73.92,62.13zm-161.62 445.18l3.08 22.36c34.94,-10.89 24.11,-46.86 24.04,-91.72 -0.15,-83.39 -8.46,-299.07 0.5,-351.87l196.26 3.8c13.76,4.24 3.43,-1.18 11.36,6.05 5.01,64.06 4.97,133.15 4.45,199.54 -0.35,45.25 -5.67,166.86 1.02,202.64 5.22,16.51 7.66,21.87 30.95,15.28 26.45,-7.49 1.83,-8.66 21.33,-15.06l-2.74 -401 212.65 -0.47c10.18,35.84 4.02,159.35 3.11,203.89 -1.12,53.89 -5.34,152.24 5.11,199.81 -1.52,22.55 -3.1,5.9 1.38,18.33 18.45,6.02 10.39,6.33 32.15,11.22l6.33 -23.55c-4.54,-60.23 1.71,-136.85 0.86,-200.54 -1.18,-89.68 4.44,-592.51 -8.55,-607.89 -35.1,-18.69 -221.55,-2.84 -276.15,-1.45 -52.96,1.34 -241.76,-17.87 -273.44,3.55l6.29 807.06z"/> <path class="fil32" d="M7353.91 10225.19c-4.64,48.23 2.65,532.28 10.75,551.37 32.81,5.6 176.17,-0.02 200.62,-13.09 20.76,-23.05 9.14,-96.55 8.15,-130.92 -1.27,-43.87 -0.45,-88.01 -0.11,-131.92 0.71,-91.14 -1.23,-180.87 -0.03,-270.51l-219.37 -4.93z"/> <path class="fil33" d="M14767.27 9774.77l6.46 83.56 304.26 -2.54c1.99,-98.1 12.61,-274.28 0.9,-362.98 -57.27,13.13 -234.52,-3.29 -305.89,-2.59l-5.73 284.56z"/> <path class="fil34" d="M7357.62 9679.59c-10.31,27.13 -2.15,256.9 -2.36,298.65l2.25 197.82c5.6,1.13 178.18,2.18 197.71,-3.57 13.22,-3.9 3.24,1.48 11.67,-6.02 16.39,-23.37 4.46,-303.12 2.15,-362.36 -1.63,-41.49 4.16,-86.07 0.9,-125.25 -20.23,-8.6 -197.03,-5.9 -212.32,0.74z"/> <path class="fil35" d="M2725.54 11059.97c-0.49,-42.38 27.48,-19.46 60.63,-16.65l416.79 1.48c61.53,-1.99 100.26,8.01 153.79,9.39l-2.32 -119.4c-70.06,51.67 -552.08,42.83 -650.16,11.09l-0.93 214.41c88.79,-14.96 61.18,-9.7 156.63,-11.23l337.71 0.68c66.42,1.69 95.97,9.9 155.08,18.84l9.06 -83.76c-101.17,-0.1 -213.4,-9 -316.95,-11.21l-305.7 -8.55c-14.66,-2.51 -2.94,2.8 -13.62,-5.08z"/> <path class="fil36" d="M12974.33 10292.82c53.51,1.5 205.43,-13.63 247.81,-2.69 8.55,39.32 7.86,182.5 2.76,223.01 -40.43,6.28 -202.79,7.99 -239.72,-0.73 -10.11,-57.24 -14.66,-157.7 -10.86,-219.59zm-40.55 -274.98c-8.52,9.35 -1.6,5.17 -15.12,13.16 -1.75,158.96 3.81,335.33 12.48,496.18l7.67 31.83c13.35,6.78 311.11,13.7 340.32,7.86 13,-52.66 4.66,-267.81 3.43,-335.34 -0.51,-28.2 -2.41,-56.35 -2.92,-84.49 -0.57,-32.27 20.52,-205.52 0.07,-247.19 -14.69,53.7 9.61,133.57 -3.51,192.81 -21.66,0.49 -30.16,0.79 -44.36,-5.72l1.79 33.57c-16.75,10.61 -40.29,17.49 -34.08,44.7 4.73,20.68 17.24,14.8 7.26,71.48 -23.25,5.77 -198.66,18.25 -224.07,13.93 -0.96,-5.56 -10.57,-168.29 -10.41,-170.19l224.04 -1.88c-31.39,-13.32 -83.37,4.72 -118.74,-7.38 -25.11,-8.58 0.97,-13.71 -49.27,-12.94 -57.56,0.88 -43.49,-1.75 -48.47,-11.38 6.82,-18.2 -14.02,-7.64 21.28,-12.79 29.75,-4.34 51.4,8.39 77.44,-8.01l-81.17 2.74c-13.93,-2.54 -0.26,0.57 -11.7,-3.62 -21.26,-7.78 -17.74,-151.71 -16.94,-180.66 -9.55,9.07 -8.21,14.78 -8.88,22.61 -0.55,6.6 1.21,14.28 1.92,21.3l5.66 140.33c-28.99,-4.07 -8.36,-3.74 -33.72,-10.91z"/> <path class="fil37" d="M9054.29 10418.55c39.2,8.67 174.96,6.89 218.12,2.23 -10.44,-47.57 -6.22,-145.93 -5.11,-199.81 0.92,-44.54 7.08,-168.05 -3.11,-203.89l-212.65 0.47 2.74 401z"/> <path class="fil38" d="M9002 10418.33c-6.69,-35.78 -1.38,-157.39 -1.02,-202.64 0.52,-66.39 0.56,-135.48 -4.45,-199.54l-202.41 -3.64 2.34 408.29c23.86,6.42 183.15,4.82 205.54,-2.47z"/> <path class="fil39" d="M11735.77 10024.64l9.92 342.01c56.94,1.68 177.38,4.74 219.43,-21.75 9.79,-32.22 5,-291.26 2.93,-341.91 -73.23,9.83 -168.43,-2.81 -232.28,21.64z"/> <path class="fil40" d="M9045.02 9982.89l162.87 -0.2c7.87,0.06 19.54,0.8 26.72,0.53 6.6,-0.26 7.93,-0.01 14.36,-1.45 12.46,-2.78 4.12,0.64 11.49,-4.68 11.58,-25.47 9.95,-280.23 3.98,-318.65 -1.5,-0.76 -3.76,-3.21 -4.73,-1.76 -0.96,1.44 -3.42,-1.3 -4.77,-1.59 -25.21,-5.41 -197.01,-0.66 -216.5,0.93 -3.12,38.5 5.98,113.81 6.95,158.64 1.14,52.3 -4.35,119.65 -0.38,168.23z"/> <path class="fil41" d="M11737.27 9678.76c-5.47,18.62 -4,274.36 0.61,304.75 6.76,1.77 221.71,-9.64 229.68,-12.09 5.3,-45.08 5.93,-271.27 -10.56,-302.38l-219.74 9.71z"/> <path class="fil42" d="M3088.81 10755.2c-15.38,15.93 -60.7,8.88 -84.5,15.34 -44.8,12.16 -37.81,9.23 -86.29,7.23 -51.84,-2.14 -130.86,2.31 -177.77,-10.16 -12.89,-88.64 -12.13,-200.96 -14.12,-293.36 -1.06,-49.44 -0.9,-98.49 -2.39,-147.73 -1.43,-46.91 3.29,-107.55 -1.17,-151.74l-22.8 -0.17c11.34,99.25 -10.82,642.79 7.18,685.97 31.1,4.2 47.97,-7.67 79.23,-9.25 87.04,-4.38 532.59,-12.37 558.04,-34.3 17.64,-15.21 0.61,-93.58 -4.06,-104.94 -28.87,7.07 -8.13,22.5 -43.23,29.47l-208.12 13.64z"/> <path class="fil43" d="M16654.55 10265.02c27.81,4.87 128.98,7.15 146.04,-2.93 10.38,-16.68 7.6,-310.84 1.38,-347.78l-152.27 -4.88 4.86 355.59z"/> <path class="fil44" d="M15070.1 10801.43c-13.16,4.61 -6.9,5.3 -19.46,1.1 -1.49,-36.08 -2.68,-70.46 -3.52,-106.67 -1.76,-76.41 8.8,-53.96 -15.15,-88.29 -45.44,-0.82 -90.04,-5.64 -125.25,10.65 -21.46,21.67 -20.69,5.55 -35.46,38.33 -6.61,14.64 -15.44,35.79 -41.22,26.52 -31.07,-11.17 -7.03,-70.37 -39.04,-92.44l-10.04 -5.59c1.43,-40.29 3.29,-81.1 4.12,-121.36 0.73,-35.73 -8.68,-90.29 -4.02,-119.21 -11.78,3.67 -3.23,80.51 -3.82,108.65 -0.84,40.43 -2.25,80.94 -3.3,121.36 -1.54,59.04 -9.04,187.58 -1.18,239.31 49.21,0.11 100.64,-2.81 149.76,-3.64l111.11 0.32c27.16,0.31 23.87,8.25 36.47,-9.07z"/> <path class="fil45" d="M12933.78 10017.84c25.36,7.17 4.73,6.84 33.72,10.91l-5.66 -140.33c-0.71,-7.02 -2.47,-14.7 -1.92,-21.3 0.67,-7.84 -0.67,-13.55 8.88,-22.61 58.21,3.49 203.83,-8.07 242.7,12.98 2.06,21.19 5.88,132.94 -0.22,156.49l-5.35 11.19c-26.03,13.82 -91.82,-2.46 -127.31,0.86 -26.04,16.4 -47.69,3.68 -77.44,8.01 -35.3,5.15 -14.46,-5.41 -21.28,12.79 4.98,9.63 -9.09,12.26 48.47,11.38 50.24,-0.77 24.16,4.37 49.27,12.94 35.37,12.1 87.35,-5.94 118.74,7.38l35.46 8.39c14.2,6.51 22.71,6.21 44.36,5.72 13.12,-59.24 -11.18,-139.11 3.51,-192.81l1.96 -98.75c-54.88,-6.61 -405.83,-4.65 -439.8,8.3 16.73,30.47 32.42,7.2 51.13,23.49 21.2,17.58 17.36,146.53 23.92,183.41l16.86 1.55z"/> <path class="fil46" d="M15142.2 10805.37c1.24,0.98 3.35,0.36 4.18,2.22 0.83,1.85 3.11,1.66 4.28,1.99l227.36 6.21c-3.99,-62.41 -38.53,-199.99 -58.06,-258.45 -57.74,-13.62 -118.46,12.38 -163.75,33.26 -7.78,37.41 -10,131.12 -5.22,172.89 2.54,22.1 6.86,25.93 -8.8,41.88z"/> <path class="fil47" d="M14901.07 10297.08l112.05 2.95 60.56 1.23 4.23 -268.3 -5.24 -8.67c-12.18,-26.26 -0.69,-35.04 -23.51,-52.31l-30.51 22.09c-1.23,29.05 -0.7,52.2 -5.2,75.43 -5.75,29.7 -7.54,38.55 -7.62,72.42 -0.06,28.59 -5.25,47.6 -4.16,73.56 0.99,23.2 8.91,38.52 3.22,58.62 -4.5,15.9 0.15,5.02 -8.49,15.44 -18.73,-10.3 -15.95,-10.49 -17.63,-36.51l-3.92 -316.35c-48.72,-0.94 -43,18.48 -46.7,63.19 -5.08,61.48 -17.48,52.2 -20.9,89.25 -5.66,61.23 -3.57,107.94 4.9,165.43 3.42,23.23 -3.16,29.88 -11.07,42.53z"/> <path class="fil48" d="M16661.37 9611.48c-7.02,32.37 -5.37,237.15 6.58,262.06l139.53 -0.6 6.83 -264.02c-17.24,-6.21 -136.5,-2.94 -152.93,2.56z"/> <path class="fil49" d="M2997.17 10931.27c73.92,0.03 147.73,-3.89 221.67,-4.52 133.04,-1.15 155.58,6.48 142.38,-72.38 -25.91,1.02 -55.93,7.21 -76.72,10.49 -24.81,3.93 -55.94,3.37 -81.68,4.92 -51.94,3.13 -104.9,7.78 -158.1,8.23l-321.58 1.08c-1.56,0.31 -3.41,1.01 -4.65,1.31 -1.22,0.28 -3.61,2.94 -4.47,1.59 -0.85,-1.34 -2.98,1.02 -6.11,1.62l-3.37 47.31c104.62,-9.61 190.24,0.29 292.62,0.34z"/> <path class="fil50" d="M5599.03 8311.68c50.09,6.4 123.88,-30.03 156.1,-50.46 26.98,-17.09 32.52,-30.43 54.76,-50.34 16.55,-14.81 34.61,-31.94 39.18,-65.84 -40.2,-1.87 -138.95,-23.24 -160.51,-21.01 -12.15,11.47 -140.38,174.13 -89.54,187.65z"/> </g> </g> </svg>